<svg width="60" height="60" viewBox="0 0 60 60" fill="none" xmlns="http://www.w3.org/2000/svg">
<path fill-rule="evenodd" clip-rule="evenodd" d="M39.0815 0C45.105 0 48.116 0 51.3585 1.025C54.8985 2.3135 57.6865 5.1015 58.975 8.6415C60 11.8835 60 14.8955 60 20.9185V39.0815C60 45.105 60 48.116 58.975 51.3585C57.6865 54.8985 54.8985 57.6865 51.3585 58.9745C48.116 60 45.105 60 39.0815 60H20.9185C14.895 60 11.8835 60 8.6415 58.9745C5.1015 57.6865 2.3135 54.8985 1.025 51.3585C0 48.116 0 45.105 0 39.0815V20.9185C0 14.8955 0 11.8835 1.025 8.6415C2.3135 5.1015 5.1015 2.3135 8.6415 1.025C11.8835 0 14.895 0 20.9185 0H39.0815Z" fill="white"/>
<path d="M12.9567 12.1016C8.7938 16.3773 6.31298 22.064 5.98486 28.0831C5.65674 34.1021 7.50412 40.0347 11.1766 44.7555C14.849 49.4763 20.0911 52.6569 25.9084 53.694C31.7256 54.7311 37.7134 53.5525 42.7359 50.3817C43.0932 50.1623 43.4895 50.0173 43.9019 49.9552C44.3144 49.8931 44.7348 49.9151 45.1389 50.0199L51.8733 51.8597L50.0711 44.985C49.8671 44.1516 49.9945 43.2697 50.4255 42.5319C53.5298 37.408 54.6851 31.2996 53.6725 25.3642C52.6598 19.4288 49.5496 14.0788 44.9311 10.328C40.3127 6.57709 34.5069 4.68593 28.6138 5.01282C22.7207 5.33972 17.1498 7.86196 12.9567 12.1016Z" fill="#03A9F4"/>
<path d="M27.0263 29.7637C27.0266 28.4334 26.6842 27.1264 26.0335 25.9739C25.3828 24.8213 24.4466 23.8637 23.3189 23.1971C22.1912 22.5304 20.9116 22.1783 19.6084 22.1758C18.3053 22.1734 17.0244 22.5209 15.8944 23.1834V18.3937C15.8944 17.8912 15.6988 17.4092 15.3507 17.0538C15.0025 16.6984 14.5304 16.4987 14.038 16.4987C13.5457 16.4987 13.0736 16.6984 12.7254 17.0538C12.3773 17.4092 12.1817 17.8912 12.1817 18.3937V29.8557C12.2865 31.8006 13.1201 33.6297 14.5098 34.9644C15.8995 36.299 17.7389 37.0369 19.6469 37.025C21.5549 37.0132 23.3854 36.2527 24.7591 34.9009C26.1329 33.5491 26.9446 31.7097 27.0263 29.7637ZM23.2956 29.7637C23.2968 30.5126 23.0803 31.245 22.6734 31.8682C22.2666 32.4914 21.6878 32.9773 21.0102 33.2645C20.3327 33.5516 19.5869 33.6271 18.8673 33.4813C18.1478 33.3355 17.4867 32.975 16.968 32.4454C16.4493 31.9159 16.0961 31.2411 15.9533 30.5065C15.8105 29.772 15.8844 29.0106 16.1657 28.319C16.4469 27.6273 16.923 27.0364 17.5334 26.6211C18.1439 26.2058 18.8614 25.9848 19.595 25.986C20.0815 25.9852 20.5633 26.0823 21.013 26.2718C21.4627 26.4613 21.8713 26.7394 22.2156 27.0903C22.5599 27.4412 22.833 27.8579 23.0194 28.3166C23.2057 28.7754 23.3016 29.2671 23.3016 29.7637H23.2956Z" fill="white"/>
<path d="M41.6125 22.1715C39.6568 22.1812 37.7841 22.9794 36.4023 24.3923C35.0205 25.8051 34.2416 27.7182 34.2353 29.7146V33.0018C33.6862 32.6703 33.2312 32.1985 32.9152 31.6328C32.5991 31.0671 32.433 30.4272 32.433 29.776V24.2566C32.4474 23.9999 32.4102 23.7429 32.3239 23.5014C32.2375 23.2598 32.1038 23.0389 31.9308 22.852C31.7579 22.665 31.5494 22.5161 31.3181 22.4144C31.0868 22.3126 30.8376 22.2601 30.5857 22.2601C30.3339 22.2601 30.0847 22.3126 29.8534 22.4144C29.6221 22.5161 29.4136 22.665 29.2406 22.852C29.0677 23.0389 28.9339 23.2598 28.8476 23.5014C28.7612 23.7429 28.7241 23.9999 28.7384 24.2566V29.776C28.74 30.7752 28.3531 31.7342 27.6627 32.4425C26.9722 33.1508 26.0347 33.5504 25.0558 33.5537H19.5229V37.0132L25 37C26.0498 37.0008 27.1135 37.1346 28.0698 36.6925C29.0261 36.2504 29.8788 35.6046 30.5707 34.7986C31.5424 35.9173 32.818 36.7157 34.2353 37.0922V41.2318C34.2622 41.7133 34.4686 42.1661 34.812 42.4973C35.1555 42.8285 35.6101 43.0131 36.0826 43.0131C36.5551 43.0131 37.0097 42.8285 37.3532 42.4973C37.6966 42.1661 37.903 41.7133 37.9299 41.2318V37.3437H41.6125C43.5834 37.3437 45.4736 36.5444 46.8672 35.1218C48.2609 33.6991 49.0438 31.7695 49.0438 29.7576C49.0438 27.7456 48.2609 25.8161 46.8672 24.3934C45.4736 22.9707 43.5834 22.1715 41.6125 22.1715ZM41.6125 33.5414H37.9299V29.7514C37.9335 29.0072 38.153 28.2808 38.5607 27.6639C38.9685 27.0469 39.5461 26.5672 40.2208 26.2852C40.8954 26.0032 41.6368 25.9316 42.3513 26.0795C43.0658 26.2273 43.7214 26.588 44.2352 27.1159C44.749 27.6439 45.098 28.3154 45.2382 29.0457C45.3784 29.7761 45.3035 30.5324 45.0229 31.2193C44.7422 31.9062 44.2685 32.4927 43.6615 32.9049C43.0546 33.3171 42.3415 33.5365 41.6125 33.5353V33.5414Z" fill="white"/>
<path d="M30.6969 20.3317C31.1262 20.3317 31.5422 20.1798 31.8741 19.9018C32.206 19.6239 32.4333 19.2371 32.5173 18.8074C32.6012 18.3776 32.5367 17.9314 32.3347 17.5448C32.1326 17.1581 31.8055 16.8549 31.4091 16.6867C31.0127 16.5186 30.5714 16.4959 30.1604 16.6225C29.7495 16.7491 29.3942 17.0172 29.1551 17.3812C28.916 17.7452 28.8078 18.1825 28.8491 18.6187C28.8903 19.0549 29.0784 19.463 29.3812 19.7736C29.5537 19.9505 29.7587 20.0908 29.9845 20.1866C30.2103 20.2824 30.4524 20.3317 30.6969 20.3317Z" fill="#FFD826"/>
<path d="M27.0263 29.7944C27.0258 28.4643 26.6831 27.1577 26.0324 26.0053C25.3816 24.853 24.4458 23.8954 23.3185 23.2284C22.1912 22.5614 20.9121 22.2084 19.6091 22.2048C18.3062 22.2012 17.0252 22.5471 15.8944 23.2079V29.7944C15.8944 28.7908 16.2849 27.8284 16.98 27.1188C17.6751 26.4092 18.6179 26.0105 19.601 26.0105C20.5841 26.0105 21.5269 26.4092 22.222 27.1188C22.9171 27.8284 23.3076 28.7908 23.3076 29.7944" fill="url(#paint0_linear_1164_1459)"/>
<path d="M34.1992 32.9956C34.6871 33.3484 35.2715 33.5351 35.8693 33.5292H37.9299V29.7453H34.2353L34.1992 32.9956Z" fill="url(#paint1_linear_1164_1459)"/>
<path d="M34.1992 37.0616C34.6791 37.2087 35.1762 37.2891 35.6771 37.3008H37.9299V41.1459H34.2353L34.1992 37.0616Z" fill="url(#paint2_linear_1164_1459)"/>
<path d="M30.5527 34.7802C31.4478 33.8481 32.391 32.6277 32.391 31.1006C32.391 30.8615 32.391 29.8066 32.391 29.7514C32.3949 30.7114 32.7631 31.6324 33.4183 32.321C34.7519 33.7499 35.4608 33.4985 35.4608 33.4985L33.184 36.712C32.6844 36.4796 32.206 36.2025 31.7542 35.8841C31.3199 35.5564 30.9175 35.1867 30.5527 34.7802Z" fill="url(#paint3_linear_1164_1459)"/>
<defs>
<linearGradient id="paint0_linear_1164_1459" x1="-0.110092" y1="41.933" x2="59.9223" y2="41.933" gradientUnits="userSpaceOnUse">
<stop stop-color="#92B0BE"/>
<stop offset="0.33" stop-color="white"/>
<stop offset="1" stop-color="white"/>
</linearGradient>
<linearGradient id="paint1_linear_1164_1459" x1="21.3778" y1="64.9153" x2="21.3778" y2="4.91749" gradientUnits="userSpaceOnUse">
<stop stop-color="#BABCBD"/>
<stop offset="0.02" stop-color="#BFC1C2"/>
<stop offset="0.13" stop-color="#D6D8D8"/>
<stop offset="0.24" stop-color="#E8E9E9"/>
<stop offset="0.39" stop-color="#F5F5F5"/>
<stop offset="0.58" stop-color="#FCFCFC"/>
<stop offset="1" stop-color="white"/>
</linearGradient>
<linearGradient id="paint2_linear_1164_1459" x1="21.3778" y1="4622.08" x2="21.3778" y2="4562.08" gradientUnits="userSpaceOnUse">
<stop stop-color="#92B0BE"/>
<stop offset="0.01" stop-color="#94B1BF"/>
<stop offset="0.12" stop-color="#B4C9D2"/>
<stop offset="0.25" stop-color="#CFDCE2"/>
<stop offset="0.39" stop-color="#E4ECEF"/>
<stop offset="0.54" stop-color="#F3F6F8"/>
<stop offset="0.72" stop-color="#FCFDFD"/>
<stop offset="1" stop-color="white"/>
</linearGradient>
<linearGradient id="paint3_linear_1164_1459" x1="33.3001" y1="33.68" x2="35.2392" y2="34.635" gradientUnits="userSpaceOnUse">
<stop stop-color="#B9CCD5" stop-opacity="0.57"/>
<stop offset="0.41" stop-color="#708088" stop-opacity="0.14"/>
<stop offset="1" stop-color="#49585F" stop-opacity="0"/>
</linearGradient>
</defs>
</svg>
