<svg width="60" height="60" viewBox="0 0 60 60" fill="none" xmlns="http://www.w3.org/2000/svg">
<path fill-rule="evenodd" clip-rule="evenodd" d="M39.0815 0C45.105 0 48.116 0 51.3585 1.025C54.8985 2.3135 57.6865 5.1015 58.975 8.6415C60 11.8835 60 14.8955 60 20.9185V39.0815C60 45.105 60 48.116 58.975 51.3585C57.6865 54.8985 54.8985 57.6865 51.3585 58.9745C48.116 60 45.105 60 39.0815 60H20.9185C14.895 60 11.8835 60 8.6415 58.9745C5.1015 57.6865 2.3135 54.8985 1.025 51.3585C0 48.116 0 45.105 0 39.0815V20.9185C0 14.8955 0 11.8835 1.025 8.6415C2.3135 5.1015 5.1015 2.3135 8.6415 1.025C11.8835 0 14.895 0 20.9185 0H39.0815Z" fill="url(#paint0_linear_441_5475)"/>
<path d="M30 11C42.1503 11 52 19.1708 52 29.25C52 39.3292 42.1503 47.5 30 47.5C28.5532 47.5 27.1393 47.3823 25.7705 47.1611C24.508 47.0324 23.7785 47.1406 22.5029 47.5352C21.0005 47.9999 18.6785 50 15.5 50C15.3215 50 18.5 47.4377 18.5 45.5V44.8096C12.2013 41.5992 8 35.8322 8 29.25C8 19.1708 17.8497 11 30 11Z" fill="white"/>
<defs>
<linearGradient id="paint0_linear_441_5475" x1="0" y1="0" x2="0" y2="60" gradientUnits="userSpaceOnUse">
<stop stop-color="#67FF81"/>
<stop offset="1" stop-color="#01B41F"/>
</linearGradient>
</defs>
</svg>
